<svg width="24" height="24" viewBox="0 0 24 24" fill="none" xmlns="http://www.w3.org/2000/svg">
  <path d="M17.523 8.999a.75.75 0 0 1 .75.75v6.5a1.75 1.75 0 0 1-1.75 1.75h-.773v2.376a.75.75 0 1 1-1.5 0V18.999h-3.5v2.376a.75.75 0 1 1-1.5 0V18.999h-.773a1.75 1.75 0 0 1-1.75-1.75v-6.5a.75.75 0 0 1 1.5 0v6.5c0 .138.112.25.25.25h9.046c.138 0 .25-.112.25-.25v-6.5a.75.75 0 0 1 .75-.75Z" fill="#ffffff"/>
  <path d="M7.25 9.999a.75.75 0 0 1-.75-.75 5.5 5.5 0 0 1 10.23-2.765l.535-.928a.75.75 0 1 1 1.3.75l-.67 1.161A5.486 5.486 0 0 1 19 9.249a.75.75 0 0 1-1.5 0 4 4 0 1 0-8 0 .75.75 0 0 1-.75.75Z" fill="#ffffff"/>
  <circle cx="9.25" cy="7.999" r=".75" fill="#205072"/>
  <circle cx="14.75" cy="7.999" r=".75" fill="#205072"/>
</svg> 