<svg width="121" height="40" viewBox="0 0 121 40" fill="none" xmlns="http://www.w3.org/2000/svg">
<g clip-path="url(#clip0_348_12164)">
<path d="M110.53 -0.00865906H9.6492C9.28147 -0.00865906 8.91816 -0.00865906 8.55141 -0.00665907C8.2444 -0.00465908 7.93985 0.0011509 7.62989 0.00604088C6.95653 0.0139427 6.28475 0.0730169 5.6204 0.18275C4.95697 0.294872 4.31433 0.506255 3.71421 0.809748C3.11482 1.11581 2.56714 1.5135 2.09104 1.9884C1.61244 2.46197 1.21349 3.00935 0.909529 3.60949C0.60473 4.20843 0.393382 4.85026 0.282783 5.5128C0.171133 6.1745 0.111054 6.84384 0.103083 7.51479C0.093777 7.82139 0.0927943 8.12901 0.0878906 8.43565V31.5498C0.0927943 31.8603 0.093777 32.1611 0.103083 32.4717C0.111056 33.1426 0.171136 33.8119 0.282783 34.4736C0.393076 35.1365 0.604437 35.7787 0.909529 36.3779C1.21335 36.9761 1.61236 37.5213 2.09104 37.9922C2.56533 38.4692 3.11337 38.8672 3.71421 39.1709C4.31433 39.4752 4.9569 39.6878 5.6204 39.8017C6.28487 39.9105 6.95658 39.9696 7.62989 39.9785C7.93985 39.9853 8.2444 39.9892 8.55141 39.9892C8.91815 39.9912 9.28149 39.9912 9.6492 39.9912H110.53C110.891 39.9912 111.257 39.9912 111.617 39.9892C111.923 39.9892 112.236 39.9853 112.542 39.9785C113.214 39.9701 113.884 39.911 114.547 39.8017C115.213 39.687 115.858 39.4744 116.461 39.1709C117.061 38.867 117.609 38.469 118.083 37.9922C118.56 37.5194 118.96 36.9747 119.267 36.3779C119.57 35.7783 119.78 35.1362 119.888 34.4736C120 33.8118 120.062 33.1427 120.074 32.4717C120.078 32.1611 120.078 31.8603 120.078 31.5498C120.086 31.1865 120.086 30.8252 120.086 30.456V9.52743C120.086 9.16123 120.086 8.79795 120.078 8.43565C120.078 8.12901 120.078 7.82139 120.074 7.51475C120.062 6.84374 120 6.17455 119.888 5.51276C119.779 4.8506 119.57 4.20883 119.267 3.60945C118.648 2.40653 117.667 1.42736 116.461 0.809658C115.858 0.506906 115.213 0.29558 114.547 0.18266C113.884 0.0724434 113.214 0.0133486 112.542 0.00590088C112.236 0.0010209 111.923 -0.00483908 111.617 -0.00678907C111.257 -0.00878906 110.891 -0.00878906 110.53 -0.00878906V-0.00865906Z" fill="#A6A6A6"/>
<path d="M8.54414 39.1141C8.23861 39.1141 7.94046 39.1102 7.63732 39.1034C7.00935 39.0953 6.38286 39.0408 5.76296 38.9403C5.18494 38.8411 4.625 38.6564 4.1016 38.3924C3.58299 38.1307 3.10999 37.7874 2.70069 37.3758C2.28548 36.9691 1.93979 36.4974 1.67733 35.9793C1.41198 35.4579 1.22835 34.899 1.13282 34.3221C1.02965 33.7023 0.973839 33.0755 0.965853 32.4472C0.959495 32.2363 0.951172 31.5341 0.951172 31.5341V8.43357C0.951172 8.43357 0.960037 7.74216 0.965903 7.53903C0.97355 6.91172 1.02904 6.28589 1.1319 5.66697C1.2276 5.08849 1.41138 4.52799 1.67687 4.00488C1.93837 3.48719 2.28213 3.01511 2.69485 2.60693C3.1071 2.19487 3.58162 1.84986 4.1011 1.58447C4.6233 1.32135 5.18219 1.13799 5.75904 1.04053C6.38097 0.939094 7.00964 0.884254 7.63979 0.876468L8.54463 0.864258H111.6L112.516 0.876958C113.14 0.884357 113.763 0.938708 114.379 1.03955C114.962 1.13823 115.527 1.32287 116.055 1.5874C117.096 2.12224 117.943 2.96841 118.477 4.00732C118.738 4.52682 118.919 5.08275 119.013 5.65623C119.117 6.28023 119.176 6.91098 119.188 7.54344C119.191 7.82663 119.191 8.13083 119.191 8.43357C119.199 8.80857 119.199 9.1655 119.199 9.52536V30.454C119.199 30.8173 119.199 31.1718 119.191 31.5292C119.191 31.8544 119.191 32.1523 119.187 32.4589C119.175 33.08 119.118 33.6995 119.015 34.3123C118.922 34.8934 118.739 35.4567 118.474 35.9823C118.209 36.4948 117.866 36.9624 117.455 37.368C117.046 37.7818 116.572 38.1271 116.052 38.3905C115.525 38.6565 114.961 38.8419 114.379 38.9403C113.76 39.0413 113.133 39.0958 112.505 39.1034C112.211 39.1102 111.904 39.1141 111.605 39.1141L110.518 39.1161L8.54414 39.1141Z" fill="black"/>
<path d="M24.95 20.2891C24.9607 19.4544 25.1831 18.636 25.5962 17.9101C26.0094 17.1841 26.6 16.5742 27.3131 16.137C26.8601 15.4919 26.2625 14.9609 25.5677 14.5864C24.873 14.2118 24.1002 14.004 23.3108 13.9794C21.6269 13.8031 19.9944 14.9842 19.1363 14.9842C18.2616 14.9842 16.9404 13.9969 15.5177 14.026C14.5975 14.0557 13.7006 14.3225 12.9145 14.8006C12.1285 15.2787 11.48 15.9516 11.0323 16.7539C9.09288 20.1023 10.5395 25.0233 12.3973 27.7299C13.3268 29.0553 14.4131 30.5357 15.8345 30.4832C17.2254 30.4257 17.7449 29.5988 19.4239 29.5988C21.0873 29.5988 21.5747 30.4832 23.0249 30.4499C24.5174 30.4257 25.4578 29.1186 26.3547 27.7807C27.0225 26.8364 27.5364 25.7927 27.8774 24.6882C27.0102 24.3225 26.2703 23.7103 25.7497 22.928C25.2291 22.1457 24.951 21.2279 24.95 20.2891Z" fill="white"/>
<path d="M22.2029 12.204C23.0167 11.2298 23.4176 9.97761 23.3205 8.71338C22.0772 8.8436 20.9288 9.43616 20.104 10.373C19.7007 10.8306 19.3919 11.3631 19.1951 11.9398C18.9983 12.5166 18.9174 13.1264 18.9571 13.7344C19.579 13.7407 20.1942 13.6063 20.7564 13.3412C21.3186 13.0762 21.8132 12.6873 22.2029 12.204Z" fill="white"/>
<path d="M42.5357 27.1396H37.789L36.6492 30.4961H34.6387L39.1346 18.0781H41.2234L45.7193 30.4961H43.6746L42.5357 27.1396ZM38.2806 25.5908H42.0431L40.1883 20.1436H40.1364L38.2806 25.5908Z" fill="white"/>
<path d="M55.4408 25.9636C55.4408 28.777 53.9308 30.5847 51.652 30.5847C51.0747 30.6148 50.5006 30.4822 49.9954 30.202C49.4902 29.9219 49.0743 29.5055 48.7954 29.0007H48.7523V33.485H46.8887V21.4362H48.6926V22.9421H48.7268C49.0186 22.4396 49.4415 22.0254 49.9506 21.7436C50.4596 21.4618 51.0357 21.3228 51.6177 21.3415C53.9219 21.3415 55.4408 23.1579 55.4408 25.9636ZM53.5253 25.9636C53.5253 24.1306 52.5754 22.9255 51.1261 22.9255C49.7022 22.9255 48.7444 24.156 48.7444 25.9636C48.7444 27.7878 49.7022 29.0095 51.1261 29.0095C52.5754 29.0095 53.5253 27.8132 53.5253 25.9636Z" fill="white"/>
<path d="M65.4291 25.9636C65.4291 28.777 63.9191 30.5846 61.6402 30.5846C61.063 30.6148 60.4889 30.4821 59.9837 30.202C59.4785 29.9219 59.0626 29.5055 58.7837 29.0006H58.7405V33.485H56.877V21.4362H58.6808V22.9421H58.7151C59.0068 22.4396 59.4297 22.0254 59.9388 21.7436C60.4478 21.4618 61.024 21.3228 61.6059 21.3415C63.9102 21.3415 65.4291 23.1579 65.4291 25.9636ZM63.5136 25.9636C63.5136 24.1306 62.5637 22.9255 61.1144 22.9255C59.6905 22.9255 58.7327 24.156 58.7327 25.9636C58.7327 27.7878 59.6905 29.0095 61.1144 29.0095C62.5637 29.0095 63.5136 27.8132 63.5136 25.9636H63.5136Z" fill="white"/>
<path d="M72.0307 27.0342C72.1688 28.2656 73.3685 29.0742 75.0078 29.0742C76.5786 29.0742 77.7087 28.2656 77.7087 27.1552C77.7087 26.1914 77.0271 25.6143 75.4132 25.2187L73.7993 24.831C71.5127 24.2803 70.4511 23.2139 70.4511 21.4834C70.4511 19.3408 72.3235 17.8691 74.9823 17.8691C77.6136 17.8691 79.4175 19.3408 79.4782 21.4834H77.597C77.4844 20.2441 76.4571 19.4961 74.9558 19.4961C73.4546 19.4961 72.4273 20.2529 72.4273 21.3545C72.4273 22.2324 73.0835 22.749 74.6885 23.1445L76.0605 23.4804C78.6154 24.083 79.677 25.1064 79.677 26.9228C79.677 29.246 77.8212 30.7011 74.8697 30.7011C72.1081 30.7011 70.2435 29.2802 70.123 27.0341L72.0307 27.0342Z" fill="white"/>
<path d="M83.6827 19.3008V21.4434H85.4092V22.915H83.6827V27.9062C83.6827 28.6816 84.0284 29.0429 84.7873 29.0429C84.9923 29.0394 85.1969 29.025 85.4004 28.9999V30.4628C85.0592 30.5264 84.7123 30.5552 84.3653 30.5488C82.5272 30.5488 81.8103 29.8603 81.8103 28.1044V22.915H80.4902V21.4434H81.8103V19.3008H83.6827Z" fill="white"/>
<path d="M86.4121 25.9707C86.4121 23.1221 88.0945 21.332 90.718 21.332C93.3504 21.332 95.025 23.122 95.025 25.9707C95.025 28.8271 93.3592 30.6093 90.718 30.6093C88.0778 30.6093 86.4121 28.8271 86.4121 25.9707ZM93.1261 25.9707C93.1261 24.0166 92.2281 22.8633 90.718 22.8633C89.208 22.8633 88.3109 24.0254 88.3109 25.9707C88.3109 27.9326 89.208 29.0771 90.718 29.0771C92.2281 29.0771 93.1261 27.9326 93.1261 25.9707H93.1261Z" fill="white"/>
<path d="M96.5645 21.4362H98.3419V22.9772H98.385C98.5052 22.4959 98.788 22.0705 99.1857 21.7727C99.5834 21.4748 100.072 21.3225 100.569 21.3414C100.784 21.3407 100.998 21.3639 101.207 21.4108V23.149C100.936 23.0664 100.653 23.0285 100.37 23.0367C100.099 23.0258 99.8293 23.0734 99.5788 23.1763C99.3283 23.2792 99.103 23.4349 98.9185 23.6328C98.734 23.8307 98.5947 24.066 98.51 24.3227C98.4253 24.5794 98.3974 24.8513 98.428 25.1197V30.4898H96.5645L96.5645 21.4362Z" fill="white"/>
<path d="M109.801 27.8379C109.55 29.4814 107.945 30.6093 105.892 30.6093C103.251 30.6093 101.611 28.8447 101.611 26.0137C101.611 23.1738 103.259 21.332 105.813 21.332C108.325 21.332 109.905 23.0527 109.905 25.7978V26.4346H103.493V26.5469C103.463 26.8801 103.505 27.2157 103.615 27.5316C103.726 27.8474 103.902 28.1362 104.133 28.3787C104.364 28.6213 104.644 28.812 104.955 28.9383C105.266 29.0646 105.6 29.1236 105.935 29.1113C106.375 29.1524 106.817 29.0507 107.195 28.8213C107.573 28.5919 107.866 28.2469 108.032 27.8379L109.801 27.8379ZM103.501 25.1357H108.04C108.057 24.8361 108.012 24.5363 107.907 24.2551C107.802 23.9739 107.639 23.7174 107.43 23.5016C107.221 23.2858 106.97 23.1155 106.691 23.0013C106.413 22.8871 106.114 22.8314 105.813 22.8379C105.51 22.8361 105.209 22.8942 104.928 23.009C104.648 23.1237 104.392 23.2928 104.177 23.5064C103.962 23.72 103.792 23.974 103.676 24.2537C103.56 24.5333 103.501 24.8331 103.501 25.1357V25.1357Z" fill="white"/>
<path d="M38.0578 8.72161C38.4485 8.69366 38.8405 8.75252 39.2057 8.89395C39.5708 9.03538 39.8999 9.25586 40.1692 9.53948C40.4386 9.82311 40.6414 10.1628 40.7632 10.5341C40.8849 10.9053 40.9225 11.2989 40.8732 11.6864C40.8732 13.5927 39.8401 14.6884 38.0578 14.6884H35.8965V8.72161H38.0578ZM36.8258 13.8446H37.954C38.2331 13.8612 38.5125 13.8156 38.7718 13.711C39.0311 13.6064 39.2637 13.4454 39.4527 13.2398C39.6417 13.0343 39.7824 12.7893 39.8645 12.5227C39.9466 12.256 39.968 11.9745 39.9272 11.6986C39.965 11.4238 39.9414 11.144 39.8581 10.8793C39.7747 10.6147 39.6337 10.3717 39.4451 10.1677C39.2565 9.96381 39.025 9.80401 38.7672 9.69977C38.5094 9.59553 38.2317 9.54945 37.954 9.56482H36.8258V13.8446Z" fill="white"/>
<path d="M41.9183 12.436C41.8899 12.1401 41.9238 11.8415 42.0179 11.5594C42.112 11.2774 42.2642 11.018 42.4647 10.798C42.6652 10.5781 42.9096 10.4023 43.1822 10.282C43.4548 10.1617 43.7496 10.0996 44.0477 10.0996C44.3458 10.0996 44.6407 10.1617 44.9133 10.282C45.1859 10.4023 45.4303 10.5781 45.6308 10.798C45.8313 11.018 45.9834 11.2774 46.0775 11.5594C46.1717 11.8415 46.2056 12.1401 46.1772 12.436C46.2061 12.7322 46.1726 13.0312 46.0787 13.3137C45.9849 13.5962 45.8328 13.856 45.6322 14.0765C45.4317 14.2969 45.1871 14.473 44.9142 14.5935C44.6413 14.7141 44.3462 14.7763 44.0477 14.7763C43.7493 14.7763 43.4541 14.7141 43.1812 14.5935C42.9084 14.473 42.6638 14.2969 42.4632 14.0765C42.2627 13.856 42.1106 13.5962 42.0167 13.3137C41.9229 13.0312 41.8893 12.7322 41.9183 12.436ZM45.2606 12.436C45.2606 11.4599 44.8209 10.8891 44.0492 10.8891C43.2746 10.8891 42.8388 11.4599 42.8388 12.436C42.8388 13.4199 43.2746 13.9863 44.0492 13.9863C44.8209 13.9863 45.2606 13.416 45.2606 12.436H45.2606Z" fill="white"/>
<path d="M51.8401 14.6904H50.9157L49.9824 11.374H49.9119L48.9826 14.6904H48.0669L46.8223 10.1875H47.7262L48.535 13.6235H48.6016L49.53 10.1875H50.3849L51.3133 13.6235H51.3838L52.1888 10.1875H53.0799L51.8401 14.6904Z" fill="white"/>
<path d="M54.1191 10.1871H54.977V10.9024H55.0436C55.1566 10.6455 55.3471 10.4301 55.5886 10.2863C55.8302 10.1425 56.1107 10.0774 56.3911 10.1001C56.6108 10.0837 56.8314 10.1167 57.0366 10.1968C57.2418 10.2769 57.4262 10.402 57.5763 10.5628C57.7264 10.7237 57.8383 10.9161 57.9037 11.126C57.9691 11.3358 57.9863 11.5576 57.954 11.7749V14.6899H57.0629V11.9981C57.0629 11.2745 56.7476 10.9146 56.0885 10.9146C55.9393 10.9077 55.7904 10.933 55.652 10.9888C55.5135 11.0446 55.3888 11.1297 55.2864 11.238C55.184 11.3464 55.1063 11.4756 55.0586 11.6167C55.011 11.7579 54.9945 11.9076 55.0103 12.0557V14.69H54.1191L54.1191 10.1871Z" fill="white"/>
<path d="M59.4004 8.42969H60.2915V14.6904H59.4004V8.42969Z" fill="white"/>
<path d="M61.512 12.4361C61.4836 12.1401 61.5176 11.8415 61.6117 11.5595C61.7059 11.2774 61.8581 11.018 62.0586 10.798C62.2591 10.5781 62.5035 10.4023 62.7761 10.282C63.0488 10.1617 63.3436 10.0996 63.6417 10.0996C63.9398 10.0996 64.2347 10.1617 64.5073 10.282C64.7799 10.4023 65.0243 10.5781 65.2248 10.798C65.4254 11.018 65.5776 11.2774 65.6717 11.5595C65.7658 11.8415 65.7998 12.1401 65.7714 12.4361C65.8003 12.7323 65.7667 13.0313 65.6729 13.3138C65.579 13.5963 65.4269 13.8561 65.2263 14.0765C65.0257 14.297 64.7811 14.4731 64.5082 14.5936C64.2353 14.7141 63.9402 14.7764 63.6417 14.7764C63.3433 14.7764 63.0481 14.7141 62.7752 14.5936C62.5023 14.4731 62.2577 14.297 62.0571 14.0765C61.8566 13.8561 61.7045 13.5963 61.6106 13.3138C61.5167 13.0313 61.4831 12.7323 61.512 12.4361ZM64.8543 12.4361C64.8543 11.46 64.4146 10.8892 63.6429 10.8892C62.8683 10.8892 62.4326 11.46 62.4326 12.4361C62.4326 13.42 62.8683 13.9864 63.6429 13.9864C64.4146 13.9863 64.8543 13.416 64.8543 12.4361H64.8543Z" fill="white"/>
<path d="M66.7207 13.416C66.7207 12.6055 67.3259 12.1382 68.4002 12.0718L69.6233 12.0015V11.6128C69.6233 11.1372 69.308 10.8686 68.6989 10.8686C68.2014 10.8686 67.8567 11.0508 67.7578 11.3691H66.895C66.9861 10.5957 67.7157 10.0996 68.74 10.0996C69.8721 10.0996 70.5106 10.6616 70.5106 11.6128V14.6894H69.6527V14.0566H69.5822C69.4391 14.2836 69.2381 14.4687 68.9998 14.5929C68.7615 14.7171 68.4945 14.776 68.2259 14.7636C68.0363 14.7833 67.8447 14.7631 67.6635 14.7044C67.4822 14.6457 67.3153 14.5498 67.1735 14.4228C67.0316 14.2959 66.9181 14.1407 66.8401 13.9673C66.7621 13.7938 66.7214 13.6061 66.7207 13.416ZM69.6233 13.0312V12.6548L68.5206 12.7251C67.8988 12.7666 67.6167 12.9775 67.6167 13.3745C67.6167 13.7798 67.9693 14.0156 68.4541 14.0156C68.5961 14.0299 68.7396 14.0156 68.876 13.9735C69.0124 13.9315 69.1389 13.8624 69.248 13.7706C69.357 13.6788 69.4465 13.566 69.511 13.4389C69.5755 13.3119 69.6137 13.1733 69.6233 13.0312Z" fill="white"/>
<path d="M71.6738 12.437C71.6738 11.0142 72.4073 10.1128 73.5482 10.1128C73.8304 10.0998 74.1105 10.1672 74.3557 10.3071C74.6009 10.447 74.8011 10.6536 74.9329 10.9028H74.9995V8.42969H75.8906V14.6904H75.0367V13.979H74.9662C74.8242 14.2265 74.617 14.4305 74.3671 14.569C74.1171 14.7075 73.8339 14.7751 73.5482 14.7646C72.3995 14.7647 71.6738 13.8633 71.6738 12.437ZM72.5944 12.437C72.5944 13.3921 73.0459 13.9668 73.8009 13.9668C74.552 13.9668 75.0162 13.3838 75.0162 12.4409C75.0162 11.5024 74.5471 10.9111 73.8009 10.9111C73.0507 10.9111 72.5944 11.4897 72.5944 12.437H72.5944Z" fill="white"/>
<path d="M79.5667 12.436C79.5383 12.1401 79.5723 11.8415 79.6664 11.5594C79.7605 11.2774 79.9127 11.018 80.1132 10.798C80.3137 10.5781 80.558 10.4023 80.8307 10.282C81.1033 10.1617 81.3981 10.0996 81.6962 10.0996C81.9943 10.0996 82.2891 10.1617 82.5617 10.282C82.8343 10.4023 83.0787 10.5781 83.2792 10.798C83.4797 11.018 83.6319 11.2774 83.726 11.5594C83.8201 11.8415 83.854 12.1401 83.8256 12.436C83.8546 12.7322 83.821 13.0312 83.7272 13.3137C83.6333 13.5962 83.4812 13.856 83.2807 14.0765C83.0801 14.2969 82.8355 14.473 82.5627 14.5935C82.2898 14.7141 81.9946 14.7763 81.6962 14.7763C81.3977 14.7763 81.1026 14.7141 80.8297 14.5935C80.5568 14.473 80.3122 14.2969 80.1117 14.0765C79.9111 13.856 79.759 13.5962 79.6652 13.3137C79.5713 13.0312 79.5378 12.7322 79.5667 12.436ZM82.909 12.436C82.909 11.4599 82.4693 10.8891 81.6976 10.8891C80.923 10.8891 80.4873 11.4599 80.4873 12.436C80.4873 13.4199 80.9231 13.9863 81.6976 13.9863C82.4693 13.9863 82.909 13.416 82.909 12.436Z" fill="white"/>
<path d="M85.0215 10.1871H85.8793V10.9024H85.9459C86.0589 10.6455 86.2494 10.4301 86.491 10.2863C86.7325 10.1425 87.0131 10.0774 87.2934 10.1001C87.5132 10.0837 87.7338 10.1167 87.9389 10.1968C88.1441 10.2769 88.3286 10.402 88.4787 10.5628C88.6288 10.7237 88.7407 10.9161 88.806 11.126C88.8714 11.3358 88.8886 11.5576 88.8564 11.7749V14.6899H87.9652V11.9981C87.9652 11.2745 87.6499 10.9146 86.9908 10.9146C86.8417 10.9077 86.6928 10.933 86.5543 10.9888C86.4159 11.0446 86.2912 11.1297 86.1888 11.238C86.0863 11.3464 86.0087 11.4756 85.961 11.6167C85.9133 11.7579 85.8968 11.9076 85.9126 12.0557V14.69H85.0215V10.1871Z" fill="white"/>
<path d="M93.9 9.06445V10.206H94.8783V10.9546H93.9V13.27C93.9 13.7417 94.0949 13.9482 94.5385 13.9482C94.6521 13.9479 94.7655 13.941 94.8783 13.9277V14.6679C94.7183 14.6965 94.5561 14.7117 94.3935 14.7134C93.4025 14.7134 93.0079 14.3657 93.0079 13.4975V10.9545H92.291V10.206H93.0079V9.06445H93.9Z" fill="white"/>
<path d="M96.1074 8.42969H96.9907V10.9111H97.0612C97.1797 10.6518 97.3755 10.4352 97.6219 10.2909C97.8682 10.1465 98.1533 10.0814 98.4381 10.1045C98.6566 10.0926 98.8751 10.129 99.078 10.2111C99.2808 10.2931 99.463 10.4188 99.6116 10.5791C99.7601 10.7395 99.8713 10.9305 99.9373 11.1386C100.003 11.3468 100.022 11.5669 99.9932 11.7832V14.6904H99.1011V12.0024C99.1011 11.2832 98.7652 10.9189 98.1356 10.9189C97.9824 10.9064 97.8283 10.9274 97.6842 10.9805C97.54 11.0335 97.4092 11.1173 97.3009 11.2261C97.1926 11.3348 97.1094 11.4658 97.0572 11.61C97.005 11.7541 96.985 11.9079 96.9986 12.0605V14.6904H96.1075L96.1074 8.42969Z" fill="white"/>
<path d="M105.165 13.4737C105.044 13.8852 104.782 14.2412 104.424 14.4794C104.067 14.7175 103.636 14.8227 103.209 14.7764C102.911 14.7843 102.616 14.7274 102.342 14.6099C102.069 14.4924 101.825 14.317 101.626 14.0958C101.428 13.8747 101.28 13.6131 101.193 13.3293C101.106 13.0455 101.082 12.7462 101.123 12.4522C101.083 12.1573 101.108 11.8574 101.194 11.5727C101.281 11.2881 101.428 11.0253 101.625 10.8022C101.823 10.5791 102.066 10.401 102.339 10.2798C102.611 10.1586 102.906 10.0971 103.205 10.0997C104.461 10.0997 105.219 10.9557 105.219 12.3697V12.6798H102.031V12.7296C102.017 12.8948 102.037 13.0611 102.092 13.2179C102.146 13.3746 102.233 13.5183 102.346 13.6398C102.459 13.7613 102.596 13.8578 102.749 13.9232C102.902 13.9886 103.067 14.0214 103.233 14.0196C103.446 14.0451 103.662 14.0068 103.854 13.9096C104.045 13.8124 104.203 13.6606 104.307 13.4737L105.165 13.4737ZM102.031 12.0225H104.311C104.323 11.8714 104.302 11.7196 104.251 11.5769C104.2 11.4342 104.119 11.3037 104.015 11.1938C103.91 11.084 103.783 10.9972 103.643 10.939C103.503 10.8808 103.352 10.8526 103.2 10.856C103.046 10.8541 102.893 10.883 102.75 10.9409C102.607 10.9988 102.478 11.0847 102.369 11.1934C102.26 11.3021 102.174 11.4315 102.115 11.5739C102.057 11.7163 102.029 11.8688 102.031 12.0225H102.031Z" fill="white"/>
</g>
<defs>
<clipPath id="clip0_348_12164">
<rect width="119.998" height="39.9999" fill="white" transform="translate(0.0957031)"/>
</clipPath>
</defs>
</svg>
