<svg width="139" height="40" viewBox="0 0 139 40" fill="none" xmlns="http://www.w3.org/2000/svg">
<g clip-path="url(#clip0_348_12155)">
<path d="M132.978 39.9948H5.11649C2.30348 39.9948 0.00195312 37.7449 0.00195312 34.9949V4.99551C0.00195312 2.24554 2.30348 -0.00439453 5.11649 -0.00439453H132.978C135.791 -0.00439453 138.093 2.24554 138.093 4.99551V34.9949C138.093 37.7449 135.791 39.9948 132.978 39.9948Z" fill="#100F0D"/>
<path d="M132.978 -0.00439453H5.11649C2.30348 -0.00439453 0.00195312 2.24554 0.00195312 4.99551V34.9949C0.00195312 37.7449 2.30348 39.9948 5.11649 39.9948H132.978C135.791 39.9948 138.093 37.7449 138.093 34.9949V4.99551C138.093 2.24554 135.791 -0.00439453 132.978 -0.00439453ZM132.978 0.795185C135.347 0.795185 137.274 2.67957 137.274 4.99551V34.9949C137.274 37.3109 135.347 39.1953 132.978 39.1953H5.11649C2.74745 39.1953 0.820709 37.3109 0.820709 34.9949V4.99551C0.820709 2.67957 2.74745 0.795185 5.11649 0.795185H132.978Z" fill="#A2A2A1"/>
<path d="M109.386 30.0031H111.295V17.5013H109.386V30.0031ZM126.578 22.005L124.39 27.4249H124.325L122.054 22.005H119.998L123.404 29.5801L121.462 33.794H123.452L128.701 22.0054L126.578 22.005ZM115.753 28.583C115.129 28.583 114.256 28.2771 114.256 27.5213C114.256 26.5565 115.343 26.1866 116.28 26.1866C117.119 26.1866 117.514 26.3631 118.024 26.6045C117.876 27.7627 116.856 28.583 115.753 28.583L115.753 28.583ZM115.984 21.7316C114.602 21.7316 113.171 22.3269 112.579 23.6457L114.273 24.3371C114.635 23.6457 115.309 23.4207 116.017 23.4207C117.004 23.4207 118.007 23.9992 118.024 25.0289V25.1574C117.678 24.9644 116.937 24.675 116.033 24.675C114.206 24.675 112.348 25.6558 112.348 27.4893C112.348 29.162 113.845 30.2396 115.523 30.2396C116.806 30.2396 117.514 29.6767 117.957 29.0171H118.024V29.9826H119.867V25.1893C119.867 22.9698 118.171 21.7316 115.984 21.7316V21.7316ZM104.188 23.5269H101.473V19.2419H104.188C105.615 19.2419 106.425 20.3966 106.425 21.3843C106.425 22.3531 105.615 23.5269 104.188 23.5269ZM104.139 17.5016H99.565V30.0034H101.473V25.2672H104.139C106.254 25.2672 108.334 23.7703 108.334 21.3848C108.334 18.9997 106.254 17.5021 104.139 17.5021L104.139 17.5016ZM79.1992 28.5851C77.8805 28.5851 76.7769 27.5054 76.7769 26.0239C76.7769 24.5251 77.8805 23.4301 79.1992 23.4301C80.5011 23.4301 81.5228 24.5251 81.5228 26.0239C81.5228 27.5054 80.5011 28.5851 79.1992 28.5851ZM81.3909 22.7049H81.3249C80.8966 22.2056 80.0722 21.7545 79.0346 21.7545C76.8589 21.7545 74.865 23.6236 74.865 26.0239C74.865 28.4078 76.8589 30.2605 79.0346 30.2605C80.0722 30.2605 80.8966 29.8093 81.3249 29.2941H81.3909V29.9058C81.3909 31.5335 80.5011 32.403 79.0673 32.403C77.8977 32.403 77.1726 31.5815 76.8757 30.8889L75.2115 31.5655C75.689 32.6927 76.9576 34.0787 79.0674 34.0787C81.309 34.0787 83.2041 32.7896 83.2041 29.6479V22.0121H81.3909L81.3909 22.7049ZM84.5227 30.0027H86.4335V17.5009H84.5227V30.0027ZM89.2517 25.8786C89.2026 24.2353 90.5543 23.3977 91.5261 23.3977C92.2845 23.3977 92.9266 23.7684 93.1416 24.2997L89.2517 25.8786ZM95.1842 24.4606C94.8218 23.5107 93.7178 21.7545 91.4601 21.7545C89.2185 21.7545 87.3565 23.4782 87.3565 26.0075C87.3565 28.3919 89.2026 30.2606 91.674 30.2606C93.6678 30.2606 94.8218 29.0688 95.3 28.3758L93.8168 27.4091C93.3222 28.118 92.6469 28.5852 91.674 28.5852C90.7022 28.5852 90.0097 28.1501 89.5655 27.2963L95.382 24.9443L95.1842 24.4606ZM48.8384 23.0595V24.8638H53.2548C53.123 25.8787 52.7769 26.6196 52.2495 27.1352C51.6066 27.7633 50.6013 28.4563 48.8383 28.4563C46.1192 28.4563 43.9935 26.3137 43.9935 23.6556C43.9935 20.9974 46.1192 18.8546 48.8383 18.8546C50.3051 18.8546 51.376 19.4186 52.1671 20.1435L53.4693 18.8706C52.3649 17.8397 50.8984 17.0503 48.8383 17.0503C45.1134 17.0503 41.9824 20.0146 41.9824 23.6556C41.9824 27.2962 45.1134 30.2606 48.8383 30.2606C50.8486 30.2606 52.3649 29.6161 53.5513 28.4079C54.7708 27.2157 55.1499 25.5403 55.1499 24.1869C55.1499 23.7685 55.1167 23.3818 55.0508 23.0595H48.8384ZM60.1715 28.5851C58.8528 28.5851 57.7157 27.5219 57.7157 26.0075C57.7157 24.4771 58.8528 23.4302 60.1715 23.4302C61.4896 23.4302 62.6268 24.4771 62.6268 26.0075C62.6268 27.5219 61.4896 28.5851 60.1715 28.5851ZM60.1715 21.7545C57.7648 21.7545 55.8041 23.5426 55.8041 26.0075C55.8041 28.4563 57.7648 30.2606 60.1715 30.2606C62.5773 30.2606 64.5384 28.4563 64.5384 26.0075C64.5384 23.5426 62.5773 21.7545 60.1715 21.7545ZM69.6978 28.5851C68.3801 28.5851 67.2426 27.5219 67.2426 26.0075C67.2426 24.4771 68.3802 23.4302 69.6978 23.4302C71.0165 23.4302 72.1532 24.4771 72.1532 26.0075C72.1532 27.5219 71.0165 28.5851 69.6978 28.5851ZM69.6978 21.7545C67.292 21.7545 65.3313 23.5426 65.3313 26.0075C65.3313 28.4563 67.292 30.2606 69.6978 30.2606C72.1045 30.2606 74.0653 28.4563 74.0653 26.0075C74.0653 23.5426 72.1045 21.7545 69.6978 21.7545Z" fill="white"/>
<path d="M21.1885 19.422L10.2988 30.7216C10.2992 30.7239 10.3001 30.7259 10.3004 30.7283C10.6344 31.9553 11.7808 32.8587 13.1414 32.8587C13.6853 32.8587 14.1959 32.715 14.6338 32.4626L14.6686 32.4427L26.9269 25.5277L21.189 19.4219" fill="#EB3131"/>
<path d="M32.2085 17.4975L32.1981 17.4905L26.9058 14.4912L20.9434 19.6779L26.9265 25.5263L32.1909 22.5568C33.1138 22.0697 33.7404 21.1186 33.7404 20.0217C33.7404 18.9327 33.1223 17.9862 32.2085 17.4975" fill="#F6B60B"/>
<path d="M10.2971 9.27734C10.2317 9.51334 10.1973 9.76053 10.1973 10.0172V29.9846C10.1973 30.2408 10.2313 30.4889 10.2976 30.724L21.5631 19.7132L10.2976 9.27763" fill="#5778C5"/>
<path d="M21.2698 19.9991L26.9067 14.4902L14.6621 7.55016C14.2171 7.28956 13.6976 7.13916 13.1418 7.13916C11.7812 7.13916 10.6333 8.04427 10.2992 9.2727C10.2988 9.2739 10.2988 9.27472 10.2988 9.27577L21.2698 19.9993" fill="#3BAD49"/>
<path d="M48.4811 9.77796H45.497V10.4998H47.7331C47.6724 11.0889 47.4326 11.5514 47.0282 11.8874C46.6239 12.2234 46.1076 12.392 45.4971 12.392C44.8274 12.392 44.2599 12.164 43.7949 11.7109C43.3393 11.2484 43.1077 10.6765 43.1077 9.98743C43.1077 9.29845 43.3393 8.72652 43.7949 8.26407C44.26 7.81098 44.8274 7.58439 45.4971 7.58439C45.8408 7.58439 46.1684 7.64219 46.4688 7.76878C46.7693 7.89528 47.0106 8.07187 47.1993 8.29847L47.7667 7.74379C47.5093 7.45779 47.1833 7.23909 46.7788 7.0797C46.3745 6.9203 45.9525 6.8438 45.497 6.8438C44.6036 6.8438 43.846 7.14689 43.2274 7.75161C42.6089 8.3578 42.2988 9.10469 42.2988 9.98745C42.2988 10.8702 42.6089 11.6187 43.2274 12.2234C43.846 12.828 44.6036 13.1312 45.497 13.1312C46.4352 13.1312 47.1832 12.8374 47.7586 12.2405C48.2652 11.7437 48.5241 11.0719 48.5241 10.2313C48.5241 10.0891 48.5066 9.93748 48.481 9.77808L48.4811 9.77796ZM49.6371 6.97805V12.9968H53.2316V12.2577H50.4282V10.3484H52.9568V9.6265H50.4282V7.71871H53.2316V6.97802L49.6371 6.97805ZM58.2719 7.71874V6.97805H54.0412V7.71874H55.761V12.9967H56.5522V7.71874H58.2719ZM62.1022 6.97805H61.311V12.9968H62.1022V6.97805ZM67.3242 7.71874V6.97805H63.0935V7.71874H64.8132V12.9967H65.6043V7.71874H67.3242ZM75.3077 7.76093C74.6971 7.14685 73.9491 6.84375 73.0556 6.84375C72.1606 6.84375 71.4127 7.14684 70.8021 7.75156C70.1915 8.34845 69.8911 9.09684 69.8911 9.98739C69.8911 10.8779 70.1915 11.6265 70.8021 12.2234C71.4126 12.828 72.1606 13.1312 73.0556 13.1312C73.941 13.1312 74.697 12.828 75.3077 12.2234C75.9182 11.6265 76.2186 10.878 76.2186 9.98739C76.2186 9.10464 75.9182 8.35771 75.3077 7.76093ZM71.3695 8.26402C71.825 7.81093 72.3844 7.58433 73.0556 7.58433C73.7253 7.58433 74.2847 7.81093 74.7323 8.26402C75.1878 8.70931 75.4115 9.29047 75.4115 9.98738C75.4115 10.6859 75.1878 11.2655 74.7323 11.7108C74.2847 12.1639 73.7253 12.392 73.0556 12.392C72.3844 12.392 71.825 12.1639 71.3695 11.7108C70.9235 11.2561 70.6998 10.6859 70.6998 9.98738C70.6998 9.29049 70.9235 8.71867 71.3695 8.26402ZM78.0983 9.2484L78.0647 8.08739H78.0983L81.2278 12.9967H82.054V6.97799H81.2629V10.4998L81.2964 11.6608H81.2629L78.2709 6.97799H77.3071V12.9967H78.0983V9.2484Z" fill="white" stroke="white" stroke-width="0.22857" stroke-miterlimit="10"/>
</g>
<defs>
<clipPath id="clip0_348_12155">
<rect width="138.096" height="40" fill="white"/>
</clipPath>
</defs>
</svg>
